<svg xmlns="http://www.w3.org/2000/svg" fill="none" viewBox="-0.5 -0.5 14 14"><g id="startup--shop-rocket-launch-startup"><path id="Vector" stroke="#e4611b" stroke-linecap="round" stroke-linejoin="round" d="M5.302142857142857 4.00205c-1.782857142857143 -1.2164285714285714 -3.4450000000000003 -0.28785714285714287 -4.837857142857143 1.1421428571428571l3.0828571428571427 1.8571428571428572" stroke-width="1"></path><path id="Vector_2" stroke="#e4611b" stroke-linecap="round" stroke-linejoin="round" d="M8.997875714285716 7.697894285714286C10.214285714285715 9.480714285714287 9.285714285714286 11.142857142857142 7.855732857142858 12.535714285714286l-1.8571428571428572 -3.0828571428571427" stroke-width="1"></path><path id="Vector_3" stroke="#e4611b" stroke-linecap="round" stroke-linejoin="round" d="m3.547152142857143 6.992235714285714 2.460714285714286 2.460714285714286C7.976437857142857 8.273655 10.214285714285715 7.131512142857143 11.235714285714286 6.072940714285715c2.21 -2.21 0.9285714285714286 -5.237138214285714 0.9285714285714286 -5.237138214285714s-3.0271335714285716 -1.2814285714285714 -5.237133571428572 0.9285667857142857c-1.0585714285714285 1.0214285714285716 -2.21 3.2685807142857146 -3.3800000000000003 5.227866428571429Z" stroke-width="1"></path><path id="Vector_4" stroke="#e4611b" stroke-linecap="round" stroke-linejoin="round" d="m4.902885 4.661447142857143 3.435714285714286 3.435714285714286" stroke-width="1"></path><path id="Vector_5" stroke="#e4611b" stroke-linecap="round" stroke-linejoin="round" d="M9.75 3.7142857142857144c0.25637857142857146 0 0.4642857142857143 -0.20787 0.4642857142857143 -0.4642857142857143s-0.20790714285714285 -0.4642857142857143 -0.4642857142857143 -0.4642857142857143 -0.4642857142857143 0.20787 -0.4642857142857143 0.4642857142857143 0.20790714285714285 0.4642857142857143 0.4642857142857143 0.4642857142857143Z" stroke-width="1"></path><path id="Vector_6" stroke="#e4611b" stroke-linecap="round" stroke-linejoin="round" d="M3.4171428571428573 11.551335714285715c-0.5385714285714286 0.52 -2.9528571428571433 0.9842857142857143 -2.9528571428571433 0.9842857142857143s0.4642857142857143 -2.4142857142857146 0.9842857142857143 -2.9528571428571433c0.12751142857142858 -0.13677857142857142 0.28128285714285717 -0.2465357142857143 0.45214000000000004 -0.32269714285714285 0.17085714285714285 -0.07612428571428571 0.35529928571428576 -0.11705571428571429 0.5423135714285715 -0.12036142857142859 0.18702357142857143 -0.0032964285714285717 0.37279357142857145 0.03110714285714286 0.5462321428571429 0.10115857142857143 0.1734292857142857 0.07001428571428571 0.33098 0.17429285714285717 0.4632457142857143 0.30661428571428573 0.13225642857142858 0.13222857142857145 0.23652571428571428 0.2898071428571429 0.3065864285714286 0.46326428571428574 0.07005142857142857 0.17336428571428572 0.104455 0.3591714285714286 0.10114928571428572 0.5461857142857143 -0.0032964285714285717 0.18701428571428572 -0.044227857142857145 0.37142857142857144 -0.12036142857142859 0.5422857142857143 -0.07612428571428571 0.17085714285714285 -0.1858907142857143 0.32462857142857143 -0.3227342857142857 0.45212142857142856v0Z" stroke-width="1"></path></g></svg>